<svg version="1.1" xmlns="http://www.w3.org/2000/svg" xmlns:xlink="http://www.w3.org/1999/xlink" width="40.5" height="40.5" viewBox="0,0,40.5,40.5"><g transform="translate(-432.75,-4.75)"><g data-paper-data="{&quot;isPaintingLayer&quot;:true}" fill-rule="nonzero" stroke="#000000" stroke-width="2.5" stroke-linecap="butt" stroke-linejoin="miter" stroke-miterlimit="10" stroke-dasharray="" stroke-dashoffset="0" style="mix-blend-mode: normal"><path d="M434,44v-38h38v38z" fill="#ffffff"/><g><path d="M438.466,20.56977c8.26648,-7.78736 21.28069,-7.39895 29.06804,0.86753c0.02677,0.02841 -7.71802,-6.55293 -13.65739,-6.73019c-5.93937,-0.17726 -15.44719,5.89708 -15.41065,5.86266z" fill="none"/><path d="M441.60563,24.96733c6.30993,-5.94421 16.24388,-5.64774 22.18809,0.6622c0.02043,0.02169 -5.89129,-5.00195 -10.4249,-5.13726c-4.53361,-0.13531 -11.79108,4.50134 -11.76319,4.47506z" fill="none"/><path d="M446.16303,29.4503c3.6441,-3.43289 9.38114,-3.26167 12.81403,0.38243c0.0118,0.01253 -3.40233,-2.88872 -6.02058,-2.96686c-2.61825,-0.07814 -6.80957,2.59961 -6.79345,2.58443z" fill="none"/><path d="M452.03636,34.99075c-0.36864,-0.39131 -0.35025,-1.00737 0.04107,-1.37601c0.39131,-0.36864 1.00736,-0.35025 1.376,0.04107c0.36864,0.39131 0.35025,1.00737 -0.04107,1.37601c-0.39131,0.36864 -1.00736,0.35025 -1.376,-0.04107z" fill="#000000"/></g></g></g></svg>